<svg width="335" height="120" viewBox="0 0 335 120" fill="none" xmlns="http://www.w3.org/2000/svg">
<rect width="335" height="120" fill="#F5F5F5"/>
<path d="M45.048 2.52799H59.64V6.11199C59.64 10.2933 58.9147 14.304 57.464 18.144C56.0987 21.8987 54.0933 25.44 51.448 28.768C48.8027 32.0107 45.5173 34.9547 41.592 37.6C37.752 40.16 33.3147 42.336 28.28 44.128C23.2453 45.92 17.656 47.2427 11.512 48.096L5.368 34.784C10.744 34.1867 15.5227 33.2053 19.704 31.84C23.9707 30.4747 27.6827 28.8533 30.84 26.976C33.9973 25.0133 36.6 22.9227 38.648 20.704C40.7813 18.4 42.36 16.0107 43.384 13.536C44.4933 10.976 45.048 8.50133 45.048 6.11199V2.52799ZM47.864 2.52799H62.456V6.11199C62.456 8.50133 62.968 10.9333 63.992 13.408C65.1013 15.8827 66.68 18.272 68.728 20.576C70.8613 22.88 73.5067 25.0133 76.664 26.976C79.8213 28.8533 83.5333 30.4747 87.8 31.84C92.0667 33.2053 96.8453 34.1867 102.136 34.784L95.992 48.096C89.848 47.2427 84.2587 45.92 79.224 44.128C74.2747 42.336 69.8373 40.16 65.912 37.6C61.9867 34.9547 58.7013 32.0107 56.056 28.768C53.4107 25.44 51.3627 21.8987 49.912 18.144C48.5467 14.304 47.864 10.2933 47.864 6.11199V2.52799ZM45.048 62.56H61.944V80.864H45.048V62.56ZM0.12 53.984H107.384V67.424H0.12V53.984ZM53.496 76.384C66.296 76.384 76.3653 78.2613 83.704 82.016C91.0427 85.6853 94.712 90.976 94.712 97.888C94.712 104.8 91.0427 110.133 83.704 113.888C76.3653 117.643 66.296 119.52 53.496 119.52C40.696 119.52 30.6267 117.643 23.288 113.888C16.0347 110.133 12.408 104.8 12.408 97.888C12.408 90.976 16.0347 85.6853 23.288 82.016C30.6267 78.2613 40.696 76.384 53.496 76.384ZM53.496 89.312C48.2053 89.312 43.768 89.6107 40.184 90.208C36.6853 90.8053 34.04 91.744 32.248 93.024C30.456 94.304 29.56 95.9253 29.56 97.888C29.56 99.936 30.456 101.6 32.248 102.88C34.04 104.16 36.6853 105.141 40.184 105.824C43.768 106.421 48.2053 106.72 53.496 106.72C58.7867 106.72 63.1813 106.421 66.68 105.824C70.264 105.141 72.952 104.16 74.744 102.88C76.536 101.6 77.432 99.936 77.432 97.888C77.432 95.9253 76.536 94.304 74.744 93.024C72.952 91.744 70.264 90.8053 66.68 90.208C63.1813 89.6107 58.7867 89.312 53.496 89.312ZM120.302 7.90399H183.662V21.088H120.302V7.90399ZM118.894 59.488L117.23 45.92C124.227 45.92 131.737 45.8773 139.758 45.792C147.779 45.6213 155.886 45.3653 164.078 45.024C172.27 44.6827 180.163 44.0853 187.758 43.232L188.526 55.392C180.846 56.5013 172.91 57.3547 164.718 57.952C156.611 58.5493 148.633 58.9333 140.782 59.104C133.017 59.2747 125.721 59.4027 118.894 59.488ZM129.646 14.56H146.03V53.856H129.646V14.56ZM157.934 14.56H174.318V53.856H157.934V14.56ZM194.158 0.863998H211.182V61.536H194.158V0.863998ZM204.398 23.904H226.798V37.728H204.398V23.904ZM132.974 66.272H211.182V98.272H149.998V112.48H133.102V85.984H194.414V79.328H132.974V66.272ZM133.102 105.312H214.638V118.624H133.102V105.312ZM317.028 0.607994H334.052V119.52H317.028V0.607994ZM270.18 8.92799C276.239 8.92799 281.615 10.6773 286.308 14.176C291.001 17.5893 294.671 22.496 297.316 28.896C300.047 35.2107 301.412 42.6773 301.412 51.296C301.412 60 300.047 67.552 297.316 73.952C294.671 80.2667 291.001 85.1733 286.308 88.672C281.615 92.0853 276.239 93.792 270.18 93.792C264.207 93.792 258.873 92.0853 254.18 88.672C249.487 85.1733 245.775 80.2667 243.044 73.952C240.399 67.552 239.076 60 239.076 51.296C239.076 42.6773 240.399 35.2107 243.044 28.896C245.775 22.496 249.487 17.5893 254.18 14.176C258.873 10.6773 264.207 8.92799 270.18 8.92799ZM270.18 24.416C267.279 24.416 264.719 25.44 262.5 27.488C260.281 29.536 258.532 32.5653 257.252 36.576C256.057 40.5013 255.46 45.408 255.46 51.296C255.46 57.0987 256.057 62.048 257.252 66.144C258.532 70.1547 260.281 73.184 262.5 75.232C264.719 77.28 267.279 78.304 270.18 78.304C273.167 78.304 275.769 77.28 277.988 75.232C280.207 73.184 281.913 70.1547 283.108 66.144C284.388 62.048 285.028 57.0987 285.028 51.296C285.028 45.408 284.388 40.5013 283.108 36.576C281.913 32.5653 280.207 29.536 277.988 27.488C275.769 25.44 273.167 24.416 270.18 24.416Z" fill="#2EA9AD"/>
</svg>
