<?xml version="1.0" encoding="UTF-8"?>
<svg id="_레이어_3" data-name="레이어_3" xmlns="http://www.w3.org/2000/svg" version="1.1" viewBox="0 0 88.76 88.7">
  <!-- Generator: Adobe Illustrator 29.2.0, SVG Export Plug-In . SVG Version: 2.1.0 Build 108)  -->
  <defs>
    <style>
      .st0 {
        stroke-width: 2px;
      }

      .st0, .st1, .st2, .st3, .st4 {
        stroke-miterlimit: 10;
      }

      .st0, .st1, .st3 {
        stroke: #034ed9;
      }

      .st0, .st2, .st4 {
        fill: none;
      }

      .st1 {
        fill: #034ed9;
      }

      .st1, .st3 {
        stroke-width: 4px;
      }

      .st2 {
        stroke-width: 1.5px;
      }

      .st2, .st4 {
        stroke: #000;
      }

      .st3 {
        fill: #a6d3ff;
      }
    </style>
  </defs>
  <path class="st1" d="M60.9,26.77c3.46-.89,7.79,2.77,8.54,3.4,3.54,2.99,4.67,6.8,5.03,8.29,3.83-1.11,4.88-1.07,5.03-.75.28.63-3.3,1.92-5.28,5.78-.51.99-1.62,3.18-1.01,5.53.52,1.99,1.74,1.99,3.18,4.93.47.96,1.21,2.51,1.32,4.63.03.54.09,2.44-.79,4.63-.27.67-1.03,2.38-4.5,5.56-4.13,3.79-6.1,4.16-6.5,6.38-.39,2.14,1.09,3.78.75,4.02-.5.36-5.48-4.39-8.54-9.3-9.83-15.73-5.01-41.1,2.76-43.1Z"/>
  <path class="st3" d="M59.69,66.6c-2.41,2.18-5,2.86-10.1,4.13-13.68,3.42-23.71.97-27.27-.06-7.01-2.04-8.54-4.26-9.14-5.39-2.12-4-.2-8.65.37-9.92-.96-2.78-2.26-7.78-1.65-14.03.73-7.46,3.82-12.79,5.53-15.33-1.1-4.77,1.34-8.47,3.77-8.79,1.67-.22,3.53,1.13,4.77,3.02h25.38c1.53-2.44,3.85-4.1,5.78-3.77,2.67.46,5.27,4.82,3.77,10.3,2.5,5.45,5.15,13.61,4.52,23.37-.34,5.27-.77,11.99-5.73,16.47Z"/>
  <path class="st1" d="M54.69,12.19c-.18-.16-.9.09-3.47,2.26-2.61-.83-7.15-1.83-12.38-.58-2.24.53-5.45,1.34-7.98,4.17-.94,1.05-3.03,3.38-2.71,6.47.2,1.94,1.36,4.26,3.33,5.39,1.62.93,3.1.65,3.94,2.03.54.9.44,1.9.42,2.06-.18,1.51-1.38,2.24-1.26,2.41.27.36,6.93-1.56,9.86-7.02,1.33-2.48,1.53-5.01,4.01-6.76.56-.39,1.31-.8,2.1-1.76.99-1.2,1.09-2.09,1.78-3.82,1.26-3.18,2.68-4.56,2.37-4.84Z"/>
  <path class="st0" d="M20,56.16c3.28-1.48,9.18-3.65,16.85-3.71,8.11-.07,14.35,2.25,17.67,3.77"/>
  <circle cx="28.12" cy="46.4" r="1.94"/>
  <circle cx="48.24" cy="46.4" r="1.94"/>
  <path class="st4" d="M32.1,62.09h10.49"/>
  <ellipse class="st2" cx="37.34" cy="62.09" rx="10.9" ry="4.8"/>
</svg>