<?xml version="1.0" encoding="UTF-8"?>
<svg id="_레이어_3" data-name="레이어_3" xmlns="http://www.w3.org/2000/svg" version="1.1" viewBox="0 0 163.58 163.48">
  <!-- Generator: Adobe Illustrator 29.2.0, SVG Export Plug-In . SVG Version: 2.1.0 Build 108)  -->
  <defs>
    <style>
      .st0 {
        fill: #3f70ff;
      }
    </style>
  </defs>
  <path class="st0" d="M61.75,35.3c1.49-5.19,4.2-11.25,9.43-13.06,3.3-1.14,4.58.46,8.71-.36,8.95-1.79,12.95-11.31,15.24-10.16,1.37.69-.1,4.08.73,8.71.29,1.61,1.28,5.59,8.34,12.7,7.75,7.8,11.1,7.56,18.3,14.27,1.78,1.66,6.81,6.41,10.6,13.1,2.37,4.19,6.95,13.91,5.78,28.71.63.7,1.7,1.77,3.28,2.7,1.99,1.17,3.24,1.17,3.4,1.8.17.68-.93,2.01-7.44,4.92-.36,2.48-1,5.91-2.25,9.86-3,9.48-7.51,16.05-9.13,18.1-9.07,11.49-18.34,15.98-16.96,21.58.42,1.72,1.76,3.16,1.31,3.58-.65.6-4.43-1.52-6.32-4.73-2.59-4.39-.87-9.49-.39-10.79-14.79,2.31-27.08,2.45-35.74,2.1-17.3-.69-25.01-3.49-28.24-4.8-7.51-3.03-18.92-7.65-21.01-17.54-1.26-5.95,1.38-11.38,3.17-14.31-.76-4.13-1.48-10.35-.73-17.78.53-5.21,2.67-26.22,19.95-39.55,3.53-2.72,10.08-6.96,19.95-9.07Z"/>
</svg>