<?xml version="1.0" encoding="UTF-8"?>
<svg id="_레이어_3" data-name="레이어_3" xmlns="http://www.w3.org/2000/svg" version="1.1" viewBox="0 0 163.58 163.48">
  <!-- Generator: Adobe Illustrator 29.2.0, SVG Export Plug-In . SVG Version: 2.1.0 Build 108)  -->
  <defs>
    <style>
      .st0 {
        fill: #fff;
      }

      .st1 {
        fill: #3f70ff;
      }
    </style>
  </defs>
  <path class="st1" d="M61.75,35.3c1.49-5.19,4.2-11.25,9.43-13.06,3.3-1.14,4.58.46,8.71-.36,8.95-1.79,12.95-11.31,15.24-10.16,1.37.69-.1,4.08.73,8.71.29,1.61,1.28,5.59,8.34,12.7,7.75,7.8,11.1,7.56,18.3,14.27,1.78,1.66,6.81,6.41,10.6,13.1,2.37,4.19,6.95,13.91,5.78,28.71.63.7,1.7,1.77,3.28,2.7,1.99,1.17,3.24,1.17,3.4,1.8.17.68-.93,2.01-7.44,4.92-.36,2.48-1,5.91-2.25,9.86-3,9.48-7.51,16.05-9.13,18.1-9.07,11.49-18.34,15.98-16.96,21.58.42,1.72,1.76,3.16,1.31,3.58-.65.6-4.43-1.52-6.32-4.73-2.59-4.39-.87-9.49-.39-10.79-14.79,2.31-27.08,2.45-35.74,2.1-17.3-.69-25.01-3.49-28.24-4.8-7.51-3.03-18.92-7.65-21.01-17.54-1.26-5.95,1.38-11.38,3.17-14.31-.76-4.13-1.48-10.35-.73-17.78.53-5.21,2.67-26.22,19.95-39.55,3.53-2.72,10.08-6.96,19.95-9.07Z"/>
  <g>
    <path class="st0" d="M79.64,78.68c0,4.32-1.38,7.62-3.96,10.02,2.88,2.4,4.56,5.88,4.56,10.44,0,12.6-10.2,16.44-22.8,16.44s-22.8-3.84-22.8-16.44c0-4.56,1.68-8.04,4.56-10.44-2.58-2.4-3.96-5.7-3.96-10.02,0-12.48,9.78-16.2,22.2-16.2s22.2,3.72,22.2,16.2ZM42.33,88.76c-3.72,2.1-5.88,5.4-5.88,10.38,0,10.92,8.52,14.64,21,14.64s21-3.72,21-14.64c0-4.98-2.16-8.28-5.88-10.38,3.36-2.04,5.28-5.28,5.28-10.08,0-10.8-8.16-14.4-20.4-14.4s-20.4,3.6-20.4,14.4c0,4.8,1.92,8.04,5.28,10.08ZM60.45,99.2c0,4.62-1.2,6.18-3,6.18s-3-1.56-3-6.18,1.2-6.12,3-6.12,3,1.5,3,6.12ZM55.05,78.68c0-4.5.9-6,2.4-6s2.4,1.5,2.4,6-.9,6-2.4,6-2.4-1.5-2.4-6ZM58.65,99.2c0-3.3-.48-4.32-1.2-4.32s-1.2,1.02-1.2,4.32.48,4.38,1.2,4.38,1.2-1.08,1.2-4.38ZM58.05,78.68c0-3.18-.24-4.2-.6-4.2s-.6,1.02-.6,4.2.24,4.2.6,4.2.6-1.02.6-4.2Z"/>
    <path class="st0" d="M103.17,103.58h18.48c3.18,0,4.2,3.48,4.2,6s-1.02,6-4.2,6h-34.8c-3.18,0-5.4-2.22-5.4-5.4v-3.9c0-1.5.54-3.3,1.5-4.44l18-21.3c3.42-4.08,2.82-6.06-3.3-6.06h-12c-3.18,0-4.2-3.48-4.2-6s1.02-6,4.2-6h16.44c13.74,0,20.16,4.02,20.16,11.64,0,4.56-3.6,11.34-8.52,17.1l-10.56,12.36ZM85.65,64.28c-1.44,0-2.4,1.68-2.4,4.2s.96,4.2,2.4,4.2h12c7.38,0,9.24,3.6,4.68,9l-18,21.3c-.66.78-1.08,2.1-1.08,3.3v3.9c0,2.16,1.44,3.6,3.6,3.6h34.8c1.44,0,2.4-1.68,2.4-4.2s-.96-4.2-2.4-4.2h-21c-.78,0-1.08-.36-.6-.9l12.3-14.4c4.86-5.7,8.1-12.06,8.1-15.96,0-5.88-4.68-9.84-18.36-9.84h-16.44Z"/>
  </g>
</svg>