<?xml version="1.0" encoding="UTF-8"?>
<svg id="_레이어_3" data-name="레이어_3" xmlns="http://www.w3.org/2000/svg" version="1.1" viewBox="0 0 163.58 163.48">
  <!-- Generator: Adobe Illustrator 29.2.0, SVG Export Plug-In . SVG Version: 2.1.0 Build 108)  -->
  <defs>
    <style>
      .st0 {
        fill: #fff;
      }

      .st1 {
        fill: #3f70ff;
      }
    </style>
  </defs>
  <path class="st1" d="M61.75,35.3c1.49-5.19,4.2-11.25,9.43-13.06,3.3-1.14,4.58.46,8.71-.36,8.95-1.79,12.95-11.31,15.24-10.16,1.37.69-.1,4.08.73,8.71.29,1.61,1.28,5.59,8.34,12.7,7.75,7.8,11.1,7.56,18.3,14.27,1.78,1.66,6.81,6.41,10.6,13.1,2.37,4.19,6.95,13.91,5.78,28.71.63.7,1.7,1.77,3.28,2.7,1.99,1.17,3.24,1.17,3.4,1.8.17.68-.93,2.01-7.44,4.92-.36,2.48-1,5.91-2.25,9.86-3,9.48-7.51,16.05-9.13,18.1-9.07,11.49-18.34,15.98-16.96,21.58.42,1.72,1.76,3.16,1.31,3.58-.65.6-4.43-1.52-6.32-4.73-2.59-4.39-.87-9.49-.39-10.79-14.79,2.31-27.08,2.45-35.74,2.1-17.3-.69-25.01-3.49-28.24-4.8-7.51-3.03-18.92-7.65-21.01-17.54-1.26-5.95,1.38-11.38,3.17-14.31-.76-4.13-1.48-10.35-.73-17.78.53-5.21,2.67-26.22,19.95-39.55,3.53-2.72,10.08-6.96,19.95-9.07Z"/>
  <g>
    <path class="st0" d="M72.29,91.28c2.88.3,6.42,3.78,6.3,8.7l-.06,3.18c0,6.72-4.56,10.8-11.82,10.8h-15.12c-7.26,0-11.82-4.08-11.82-10.8l-.06-3.18c-.12-4.92,3.42-8.4,6.3-8.7-2.88-1.14-5.58-4.2-5.58-9.48v-2.04c0-7.86,4.2-12,12-12h13.44c7.8,0,12,4.14,12,12v2.04c0,5.28-2.7,8.34-5.58,9.48ZM57.48,109.64h3.36c3.96,0,6.72-2.22,6.72-6.18v-3.84c0-3.9-2.82-6.36-6.72-6.36h-3.36c-3.9,0-6.72,2.46-6.72,6.36v3.84c0,3.96,2.76,6.18,6.72,6.18ZM58.19,89.66h1.92c3.96,0,6.72-2.76,6.72-6.72v-4.14c0-4.02-2.88-6.72-6.72-6.72h-1.92c-3.84,0-6.72,2.7-6.72,6.72v4.14c0,3.96,2.76,6.72,6.72,6.72Z"/>
    <path class="st0" d="M103.73,72.44h-1.98c-3.9,0-6.72,2.82-6.72,6.72v2.16h-11.1v-1.56c0-7.8,4.2-12,12-12h13.56c7.8,0,12,4.14,12,12v3.66c0,16.38-26.22,8.76-26.22,21.12v4.8h26.94v4.68h-38.04v-7.2c0-18.78,26.28-13.02,26.28-22.32v-5.34c0-4.02-2.88-6.72-6.72-6.72Z"/>
  </g>
</svg>