<?xml version="1.0" encoding="UTF-8"?>
<svg id="_레이어_3" data-name="레이어_3" xmlns="http://www.w3.org/2000/svg" version="1.1" viewBox="0 0 163.58 163.48">
  <!-- Generator: Adobe Illustrator 29.2.0, SVG Export Plug-In . SVG Version: 2.1.0 Build 108)  -->
  <defs>
    <style>
      .st0 {
        fill: #fff;
      }

      .st1 {
        fill: #3f70ff;
      }
    </style>
  </defs>
  <path class="st1" d="M61.75,35.3c1.49-5.19,4.2-11.25,9.43-13.06,3.3-1.14,4.58.46,8.71-.36,8.95-1.79,12.95-11.31,15.24-10.16,1.37.69-.1,4.08.73,8.71.29,1.61,1.28,5.59,8.34,12.7,7.75,7.8,11.1,7.56,18.3,14.27,1.78,1.66,6.81,6.41,10.6,13.1,2.37,4.19,6.95,13.91,5.78,28.71.63.7,1.7,1.77,3.28,2.7,1.99,1.17,3.24,1.17,3.4,1.8.17.68-.93,2.01-7.44,4.92-.36,2.48-1,5.91-2.25,9.86-3,9.48-7.51,16.05-9.13,18.1-9.07,11.49-18.34,15.98-16.96,21.58.42,1.72,1.76,3.16,1.31,3.58-.65.6-4.43-1.52-6.32-4.73-2.59-4.39-.87-9.49-.39-10.79-14.79,2.31-27.08,2.45-35.74,2.1-17.3-.69-25.01-3.49-28.24-4.8-7.51-3.03-18.92-7.65-21.01-17.54-1.26-5.95,1.38-11.38,3.17-14.31-.76-4.13-1.48-10.35-.73-17.78.53-5.21,2.67-26.22,19.95-39.55,3.53-2.72,10.08-6.96,19.95-9.07Z"/>
  <g>
    <path class="st0" d="M54.17,83.9c-.98-.43-1.91-1.25-2.81-2.46-.7-.94-1.15-2-1.35-3.19-.2-1.19-.25-2.41-.18-3.66.12-2.54,1.28-4.7,3.49-6.47,2.21-1.78,4.75-2.59,7.65-2.43,4.1.08,7.16,1.06,9.17,2.96,2.01,1.9,2.92,4.17,2.72,6.83,0,2.07-.27,3.74-.82,5.01-.55,1.27-1.43,2.33-2.64,3.19v.06c.9.2,1.7.43,2.4.7,1.21.55,2.23,1.27,3.05,2.17,1.29,1.13,2.23,2.46,2.81,3.98s.82,3.18.7,4.98c-.31,4.84-1.49,8.19-3.52,10.05-2.03,1.86-5.86,2.71-11.48,2.55-3.05.08-6.07-.82-9.08-2.7-3.01-1.88-4.69-4.82-5.04-8.85-.2-1.02-.2-2.21,0-3.57.2-1.37.43-2.44.7-3.22.78-1.52,1.74-2.75,2.87-3.69.86-.7,1.7-1.27,2.52-1.7-.39-.16-.78-.33-1.17-.53ZM58.28,87.33c-1.13.33-2.07.99-2.81,1.96-.7.86-1.2,1.8-1.49,2.81-.29,1.02-.36,2.25-.21,3.69.47,2.7,1.56,4.74,3.28,6.12,1.72,1.39,3.96,2.12,6.74,2.2,4.41-.12,7.19-.95,8.32-2.49,1.13-1.54,1.78-3.6,1.93-6.18,0-1.29-.15-2.51-.44-3.66-.29-1.15-1.14-2.28-2.55-3.37-1.17-.62-2.1-1.05-2.78-1.29-.68-.23-2.47-.39-5.36-.47-1.95.12-3.5.34-4.63.67ZM54.2,77.83c.18.96.67,1.81,1.49,2.55.66.51,1.44.9,2.34,1.17.9.27,1.84.39,2.81.35,1.95,0,3.43-.12,4.42-.35s1.77-.8,2.31-1.7c.9-1.21,1.29-2.7,1.17-4.45-.12-.74-.27-1.43-.47-2.05-.2-.62-.64-1.33-1.35-2.11-.51-.39-1.11-.75-1.82-1.08-.7-.33-1.99-.58-3.87-.73-2.62.08-4.44.67-5.48,1.79-1.04,1.11-1.57,2.24-1.61,3.37-.16,1.21-.15,2.29.03,3.25Z"/>
    <path class="st0" d="M101.81,101.18c4.88-.16,8.11-.2,9.67-.12,1.05.2,1.6.82,1.64,1.88,0,1.37-.62,2.09-1.88,2.17-12.58.27-20.21.41-22.91.41l-2.34.41c-.59,0-1.22-.12-1.9-.35-.68-.23-1.03-.7-1.03-1.41,0-.94.22-1.61.67-2.02.45-.41.95-.87,1.49-1.38,1.72-1.52,3.11-2.7,4.19-3.52,1.07-.82,2.12-1.72,3.13-2.7,1.05-.94,2.04-1.83,2.96-2.67.92-.84,2.12-1.94,3.6-3.31,1.48-1.41,2.69-2.85,3.6-4.34.92-1.48,1.42-3.01,1.49-4.57.04-1.84-.31-3.35-1.05-4.54-.74-1.19-2.07-1.88-3.98-2.08-.78,0-1.59.08-2.43.23-.84.16-1.77.53-2.78,1.11-1.52.86-2.52,1.57-2.99,2.14-.47.57-.96,1.4-1.46,2.49-.16.51-.56,1-1.2,1.46s-1.34.55-2.08.23c-1.13-.74-1.49-1.76-1.05-3.05.86-1.64,1.68-2.94,2.46-3.9.78-.96,1.88-1.9,3.28-2.84,1.44-.86,2.91-1.41,4.39-1.64,1.48-.23,2.79-.35,3.93-.35.86,0,1.99.21,3.4.62s2.77,1.49,4.1,3.25c.66.74,1.15,1.88,1.46,3.43.31,1.54.45,2.65.41,3.31,0,2.89-.59,5.21-1.76,6.94-1.17,1.74-2.64,3.39-4.39,4.95-1.72,1.6-3.54,3.24-5.48,4.92-1.93,1.68-4.03,3.36-6.3,5.04,2.54,0,6.25-.08,11.13-.23Z"/>
  </g>
</svg>