<svg width="156" height="156" viewBox="0 0 156 156" fill="none" xmlns="http://www.w3.org/2000/svg">
<path d="M53.2544 28.49C55.021 22.9383 58.234 16.456 64.4349 14.5198C68.3474 13.3004 69.865 15.0119 74.7617 14.1347C85.3731 12.22 90.1156 2.03655 92.8307 3.2667C94.455 4.00478 92.7121 7.63103 93.6962 12.5837C94.04 14.3059 95.2138 18.5633 103.584 26.1687C112.773 34.5123 116.745 34.2556 125.281 41.4332C127.392 43.2089 133.356 48.2899 137.849 55.4461C140.659 59.9281 146.089 70.3255 144.702 86.1569C145.449 86.9057 146.718 88.0503 148.591 89.0451C150.95 90.2966 152.432 90.2966 152.622 90.9705C152.824 91.6979 151.519 93.1206 143.801 96.2334C143.374 98.8862 142.615 102.555 141.133 106.781C137.576 116.921 132.229 123.949 130.308 126.142C119.555 138.433 108.564 143.236 110.2 149.226C110.698 151.066 112.287 152.606 111.753 153.055C110.983 153.697 106.501 151.429 104.26 147.996C101.189 143.3 103.229 137.844 103.798 136.454C86.2623 138.925 71.6909 139.074 61.4234 138.7C40.912 137.962 31.7708 134.967 27.9412 133.566C19.0371 130.324 5.50905 125.382 3.03108 114.803C1.53719 108.439 4.66725 102.63 6.78952 99.496C5.88845 95.0781 5.03479 88.4247 5.92402 80.4769C6.5524 74.9038 9.08965 52.4296 29.5773 38.1707C33.7626 35.2611 41.5285 30.7256 53.2306 28.4686L53.2544 28.49Z" stroke="#3F70FF" stroke-width="5" stroke-miterlimit="10"/>
<path d="M17.1401 68.967C21.2068 60.3667 23.2461 56.0559 26.3998 52.9217C32.328 47.0277 37.0705 46.6212 38.2561 46.5677C39.1691 46.5249 41.2795 46.4501 42.145 47.5732C42.8208 48.4504 42.394 49.5949 41.4099 52.5901C40.9949 53.8416 40.3429 55.8526 39.5603 58.4413C42.0264 59.0617 43.959 59.9174 45.2988 60.6127C48.2629 62.1531 50.0294 63.8325 51.0372 64.7952C52.4837 66.1751 53.2069 66.8918 53.4441 67.9722C53.8116 69.6409 53.1121 71.7803 51.4048 72.6574C50.0176 73.3634 48.4881 72.9677 46.769 72.4863C42.9157 71.4166 41.8367 69.78 38.8015 68.475C37.2128 67.7904 34.7467 67.0523 31.2017 67.1378C30.4547 69.0847 29.4706 71.9514 28.6051 75.4921C27.0164 82.0386 27.2654 85.2156 24.9059 86.189C22.9734 86.9806 20.1516 85.943 18.6103 84.8519C17.5313 84.0924 16.9267 83.2153 16.571 82.6804C15.3972 80.9261 15.1838 79.2681 15.0889 78.4979C14.6028 74.4117 16.654 69.9618 17.1282 68.967H17.1401Z" fill="#3F70FF"/>
<path d="M18.8118 91.3663C21.3372 90.9812 24.9178 90.2645 28.9964 88.8632C31.3202 88.061 32.9089 87.3443 35.1142 86.3602C41.8723 83.3222 45.2514 81.7926 47.5278 79.6746C49.0928 78.2091 49.9464 76.9576 51.4166 77.0004C53.1595 77.0539 54.6653 78.9151 55.1158 80.1774C57.0602 85.5044 45.1209 93.0778 44.374 93.5485C44.8127 94.9177 45.1802 96.9501 44.5637 99.2285C44.1843 100.619 43.793 102.063 42.3347 102.908C40.663 103.871 38.434 103.561 36.9638 102.737C34.9719 101.635 33.9404 99.3783 34.3673 97.0571C30.9764 98.469 28.036 99.0895 26.0323 99.3997C22.5584 99.9238 20.0923 100.266 18.2546 98.8969C17.2112 98.116 16.4168 96.8324 16.405 95.3883C16.3813 92.9494 18.5984 91.5054 18.8118 91.377V91.3663Z" fill="#3F70FF"/>
<path d="M59.0165 109.273C58.6134 108.695 56.6453 105.957 52.1636 104.096C50.1243 103.251 48.3221 102.898 37.3432 102.759C28.7 102.652 27.4906 102.833 26.0442 103.261C23.7796 103.924 18.5984 105.454 16.5947 109.947C15.0059 113.52 16.3813 116.825 16.5947 117.306C18.2664 121.125 22.1197 122.719 24.3724 123.66C27.6685 125.019 30.5851 125.126 36.4184 125.329C41.1609 125.5 43.8523 125.586 47.5396 124.826C50.5748 124.195 54.8431 123.254 58.1036 119.981C59.0995 118.975 60.5816 117.445 60.878 115.135C61.2337 112.461 59.7872 110.385 59.0284 109.284L59.0165 109.273ZM47.9902 114.3C47.2906 115.691 44.9075 115.916 42.4296 116.14C40.082 116.354 39.6196 116.065 36.1339 115.969C31.3439 115.841 29.3639 116.322 28.7237 115.306C28.2731 114.589 28.7711 113.594 29.0912 112.963C29.9212 111.305 31.581 110.631 32.0553 110.46C33.2765 110.503 35.1379 110.535 37.4262 110.46C43.2951 110.278 45.5241 109.605 47.0535 110.963C48.0376 111.829 48.4763 113.306 47.9783 114.3H47.9902Z" fill="#3F70FF"/>
<path d="M92.2023 31.7632C89.5465 27.9444 84.4009 24.7889 78.5557 24.3182C71.9399 23.7834 67.1618 27.1957 57.6175 34.0096C49.9702 39.4757 49.2232 42.1071 49.65 43.701C49.899 44.6102 50.7171 45.9152 52.0569 46.8779C52.6141 47.2737 54.0725 48.322 56.1354 48.2151C57.2381 48.1616 58.0799 47.7979 58.5423 47.5518C58.0443 53.9165 58.317 59.2649 58.732 63.2656C59.4196 69.887 60.6053 73.8555 60.961 74.968C61.8265 77.7385 62.7868 80.0062 63.5575 81.6535C62.9647 81.9531 62.194 82.3916 61.3285 82.9907C59.7042 84.1245 58.4356 85.0124 57.9969 86.4992C57.8902 86.8629 57.6649 87.6545 57.9969 88.5103C58.1273 88.8526 58.3407 89.1735 60.2259 90.6817C61.2337 91.4947 61.7435 91.9119 62.0754 92.0188C63.4626 92.4895 64.9447 91.8156 65.5968 91.5161C70.1377 89.3981 72.4141 88.3284 75.971 85.836C78.4134 84.1138 82.2312 82.0172 88.017 80.6587C88.1356 80.2095 88.266 79.5784 88.3846 78.8189C88.7284 76.5618 88.9063 75.3638 88.1949 74.4759C87.9933 74.2192 87.2582 73.4169 85.2308 73.31C84.7091 69.1061 84.472 63.9395 85.0411 58.099C85.788 50.5684 87.6495 44.2786 89.4872 39.5506C90.6491 39.925 92.8425 40.4705 93.9333 39.5506C95.6288 38.1279 93.7199 33.9775 92.2023 31.7953V31.7632ZM76.4334 77.1181C75.0107 77.8455 73.5879 78.5621 72.177 79.2895C70.5053 66.5281 68.8454 53.7774 67.1737 41.016C67.6123 40.3849 68.8573 38.7911 71.2522 37.8391C73.8606 36.8015 76.2082 37.1759 76.9907 37.3363C76.4334 38.2883 75.8762 39.2297 75.3189 40.1817C75.0818 44.193 74.9395 48.3755 74.9514 52.7185C74.9514 61.4685 75.5323 69.6302 76.4334 77.1181Z" fill="#3F70FF"/>
<path d="M96.435 75.9842C95.6169 75.6954 95.0715 74.9894 94.8225 74.6471C94.0045 73.5774 93.8859 72.4649 93.8385 71.9729C93.3286 66.1537 94.206 61.9499 94.206 61.9392C95.4035 56.0559 97.6799 50.3437 98.2846 44.3856C98.3794 43.4549 98.5217 41.6151 99.9563 40.0426C101.047 38.8339 102.529 38.1921 104.035 37.5396C105.778 36.7801 106.655 36.4057 107.556 36.534C109.726 36.855 111.054 39.3259 111.445 41.0481C111.801 42.6099 111.445 43.8935 111.255 44.5567C110.153 48.4611 108.849 52.1515 107.734 55.0825C108.6 55.4462 109.833 55.9917 111.255 56.7512C113.212 57.7995 114.196 58.3236 114.777 59.0938C116.057 60.7839 116.271 63.5437 114.777 64.7738C114.575 64.9343 114.101 65.2873 112.892 65.4691C109.916 65.9184 107.307 64.6562 106.062 63.9395C105.635 64.8915 104.972 66.3998 104.213 68.2824C102.648 72.1761 102.399 73.4169 100.881 74.6364C100.585 74.8717 98.3202 76.6474 96.435 75.9735V75.9842Z" fill="#3F70FF"/>
<path d="M68.0866 100.555C67.5768 98.437 69.2841 96.565 70.861 94.8749C72.7105 92.896 74.4771 91.7835 79.9429 88.8633C88.9181 84.0603 90.6136 83.6218 92.3564 84.178C93.7673 84.638 95.1782 85.7398 96.8025 87.0234C98.3676 88.2535 99.1619 88.874 99.7666 89.8688C101.296 92.3611 100.525 95.1744 100.134 96.5543C99.7785 97.8273 99.1382 99.3569 96.0556 103.24C93.3642 106.631 92.0126 108.321 90.1274 109.925C88.1593 111.594 83.6895 114.846 75.8643 116.279C75.7458 118.119 75.6153 119.959 75.4968 121.799C81.2115 122.601 84.6735 121.585 86.7958 120.462C88.3016 119.67 90.0207 118.365 92.3564 118.622C92.5343 118.643 94.9174 118.943 95.688 120.462C96.5536 122.163 94.87 124.291 94.206 125.147C89.7599 130.806 70.7543 128.987 67.5293 128.656C66.6876 127.639 65.5375 126.014 64.755 123.81C64.1622 122.141 62.941 118.718 64.3874 115.124C66.3793 110.161 72.094 108.257 73.0899 107.925C77.6665 106.395 79.1841 108.128 82.741 106.545C88.1474 104.149 90.6136 97.4956 89.4042 96.5757C88.8944 96.1906 87.0211 97.2068 83.2864 99.2499C76.303 103.09 74.8091 104.684 72.3549 104.267C70.2919 103.914 68.5016 102.288 68.0984 100.587L68.0866 100.555Z" fill="#3F70FF"/>
<path d="M123.29 70.9674C123.207 71.898 123.159 73.2244 123.29 74.8075C123.455 76.7116 123.811 78.1022 123.894 78.4552C127.131 91.6124 122.661 103.197 122.661 103.197C121.049 107.38 118.76 110.674 117.539 112.407C113.84 117.681 110.829 119.809 109.761 124.773C108.932 128.624 110.105 130.292 110.686 130.956C110.995 131.298 112.073 132.517 113.65 132.624C115.37 132.742 116.887 131.49 121.428 125.939C124.202 122.548 125.601 120.858 126.431 119.585C127.107 118.558 130.332 113.573 132.549 106.042C133.142 104.021 133.557 101.86 134.399 97.517C135.608 91.2487 135.822 88.4996 135.881 87.4834C135.964 86.1676 136.082 83.6539 135.881 80.4662C135.549 75.1498 135.347 72.4542 133.474 70.4325C133.237 70.1758 130 66.7742 126.621 67.7583C124.487 68.3787 123.527 70.379 123.29 70.9353V70.9674Z" fill="#3F70FF"/>
<path d="M119.661 83.0869C118.962 80.7764 117.954 78.8617 115.962 77.5673C115.536 77.2999 112.583 75.4493 109.477 76.4014C108.789 76.6046 107.414 77.1608 105.956 79.0756C103.3 82.5735 104.379 85.4189 103.359 91.944C102.731 95.9553 102.28 95.2172 101.32 100.63C100.288 106.502 100.478 109.284 102.055 111.658C102.719 112.653 103.466 113.766 104.829 114.161C109.252 115.434 115.346 107.754 115.95 106.973C115.95 106.973 123.823 96.8431 119.65 83.0762L119.661 83.0869ZM112.512 96.3083C111.848 99.7099 110.224 103.465 109.358 103.325C108.742 103.229 108.659 101.133 108.623 99.988C108.386 93.6982 110.734 86.9699 111.955 87.1197C112.986 87.248 113.295 92.2435 112.512 96.3083Z" fill="#3F70FF"/>
</svg>
